Coordinates
version=1
nRows=27
nColumns=38
inDegrees=no

Units are S.I. units (second, meters, Newtons, ...)
If the header above contains a line with 'inDegrees', this indicates whether rotational values are in degrees (yes) or radians (no).

endheader
time	pelvis_tilt	pelvis_list	pelvis_rotation	pelvis_tx	pelvis_ty	pelvis_tz	hip_flexion_r	hip_adduction_r	hip_rotation_r	knee_angle_r	ankle_angle_r	subtalar_angle_r	mtp_angle_r	hip_flexion_l	hip_adduction_l	hip_rotation_l	knee_angle_l	ankle_angle_l	subtalar_angle_l	mtp_angle_l	lumbar_extension	lumbar_bending	lumbar_rotation	arm_flex_r	arm_add_r	arm_rot_r	elbow_flex_r	pro_sup_r	wrist_flex_r	wrist_dev_r	arm_flex_l	arm_add_l	arm_rot_l	elbow_flex_l	pro_sup_l	wrist_flex_l	wrist_dev_l
0	1.53522	1.47262	0.185964	0.61847	-0.788134	0.920817	0.399294	0.0343746	-0.201328	0.470948	-0.320845	0	0	-0.241094	-0.164343	-0.148472	0.633385	-0.237333	0	0	-0.0914632	0.159968	0.0041666	-0.318245	-0.215651	-0.123973	0.865502	1.5708	0	0	0.144415	-0.202868	0.489307	0.731678	1.5708	0	0
0.01	1.43348	1.46479	0.281446	0.619871	-0.77721	0.921485	0.408276	0.0451992	-0.194099	0.484985	-0.317733	0	0	-0.211216	-0.17174	-0.123775	0.681686	-0.25436	0	0	-0.0671894	0.15523	0.0254325	-0.316677	-0.208685	-0.1298	0.839589	1.5708	0	0	0.149468	-0.199253	0.524893	0.699869	1.5708	0	0
0.02	1.67813	1.44787	0.0226412	0.620978	-0.764654	0.921765	0.370663	0.072664	-0.199578	0.483958	-0.314411	0	0	-0.211358	-0.300551	-0.402526	0.796577	-0.373443	0	0	-0.00474285	0.148682	0.186813	-0.398192	-0.161832	-0.230594	0.792403	1.5708	0	0	0.2865	-0.125403	0.875465	0.485974	1.45707	0	0
0.03	1.43915	1.45697	0.268762	0.622745	-0.754554	0.923092	0.40676	0.0620012	-0.228631	0.538061	-0.280081	0	0	-0.167761	-0.189341	-0.0892777	0.786814	-0.300566	0	0	-0.0262126	0.157016	0.0751346	-0.346766	-0.201941	-0.147809	0.835794	1.5708	0	0	0.170999	-0.175505	0.604664	0.606938	1.5708	0	0
0.04	1.43734	1.45313	0.265861	0.624401	-0.743785	0.923745	0.391075	0.0721349	-0.195789	0.525637	-0.274404	0	0	-0.1409	-0.19773	-0.0749331	0.844884	-0.322556	0	0	-0.0576755	0.162186	0.0151645	-0.303146	-0.223544	-0.089591	0.855553	1.5708	0	0	0.0893038	-0.214389	0.488258	0.711728	1.5708	0	0
0.05	1.49202	1.44844	0.211016	0.625605	-0.732854	0.925013	0.362643	0.0785964	-0.209942	0.505031	-0.273943	0	0	-0.119356	-0.209704	-0.0615062	0.902534	-0.339863	0	0	-0.0369913	0.167645	0.0647036	-0.337914	-0.215261	-0.125079	0.863492	1.5708	0	0	0.130221	-0.196638	0.582052	0.63603	1.5708	0	0
0.06	1.53403	1.44668	0.168037	0.626726	-0.722521	0.92591	0.342271	0.0848532	-0.215373	0.499711	-0.263806	0	0	-0.0947973	-0.217187	-0.0500465	0.963586	-0.349417	0	0	-0.0629379	0.169259	0.0379483	-0.315219	-0.220451	-0.111382	0.881487	1.5708	0	0	0.086425	-0.222468	0.532841	0.695841	1.5708	0	0
0.07	1.54392	1.44564	0.15719	0.627755	-0.712399	0.926464	0.327902	0.0886734	-0.223265	0.498617	-0.253353	0	0	-0.064475	-0.222532	-0.0392697	1.02611	-0.355771	0	0	-0.0325047	0.173882	0.116866	-0.372245	-0.197658	-0.188817	0.900217	1.5708	0	0	0.155025	-0.189033	0.67456	0.586788	1.57015	0	0
0.08	1.51865	1.44537	0.179497	0.628689	-0.702556	0.926936	0.323784	0.092083	-0.228012	0.508813	-0.243008	0	0	-0.0293774	-0.223819	-0.0272676	1.08693	-0.363015	0	0	-0.0352184	0.171847	0.118893	-0.366831	-0.198543	-0.191016	0.910066	1.5708	0	0	0.142676	-0.202671	0.681304	0.602531	1.57007	0	0
0.09	1.51941	1.44428	0.177666	0.62952	-0.692775	0.927992	0.306325	0.0943658	-0.237383	0.495636	-0.240308	0	0	0.00270298	-0.227146	-0.0170988	1.14346	-0.37543	0	0	-0.0491704	0.168239	0.0916449	-0.337444	-0.211501	-0.156336	0.910226	1.5708	0	0	0.104331	-0.231084	0.641552	0.653764	1.5708	0	0
0.1	1.61088	1.44677	0.0868351	0.630324	-0.683318	0.929317	0.280356	0.096002	-0.241612	0.492638	-0.23001	0	0	0.0218778	-0.228907	-0.0101285	1.19744	-0.371359	0	0	-0.0127502	0.164693	0.212909	-0.407685	-0.164506	-0.275662	0.909656	1.5708	0	0	0.236793	-0.193012	1.01564	0.513431	1.35698	0	0
0.11	1.64694	1.44856	0.0510614	0.630801	-0.67387	0.930859	0.260218	0.0976127	-0.241963	0.484485	-0.226226	0	0	0.0480894	-0.227222	-0.0008678	1.24521	-0.358508	0	0	-0.0214214	0.160248	0.228391	-0.406554	-0.163698	-0.28397	0.914871	1.5708	0	0	0.23531	-0.194179	1.01326	0.515154	1.36348	0	0
0.12	1.62959	1.4501	0.0676547	0.631154	-0.664411	0.93225	0.24591	0.0994464	-0.239371	0.473555	-0.223913	0	0	0.0808533	-0.223592	0.00862762	1.28793	-0.337321	0	0	-0.0559197	0.158699	0.221237	-0.393941	-0.169482	-0.285877	0.943723	1.5708	0	0	0.208238	-0.215443	0.929226	0.565967	1.42161	0	0
0.13	1.68744	1.45384	0.0100689	0.631944	-0.655	0.933806	0.220101	0.0999377	-0.238821	0.459525	-0.218828	0	0	0.102707	-0.219637	0.014451	1.32562	-0.306866	0	0	-0.0297173	0.151088	0.236365	-0.392017	-0.171271	-0.278507	0.920163	1.5708	0	0	0.216314	-0.20619	0.980981	0.525898	1.3969	0	0
0.14	1.60289	1.46039	0.0927681	0.632903	-0.645381	0.934896	0.215828	0.0986177	-0.229475	0.453651	-0.214701	0	0	0.14153	-0.208717	0.0235061	1.35747	-0.280035	0	0	-0.0681096	0.154325	-0.091616	-0.147104	-0.282916	0.114284	0.866051	1.5708	0	0	-0.111994	-0.260821	0.318107	0.771213	1.5708	0	0
0.15	1.60908	1.46344	0.084212	0.633626	-0.635873	0.936318	0.192774	0.0994248	-0.225059	0.430334	-0.21518	0	0	0.168187	-0.204514	0.0258277	1.38433	-0.262937	0	0	-0.0633073	0.145432	-0.0951746	-0.126136	-0.281919	0.134143	0.848374	1.5708	0	0	-0.127532	-0.26219	0.313953	0.768583	1.5708	0	0
0.16	1.7704	1.4652	-0.080135	0.633958	-0.627093	0.937933	0.157956	0.100491	-0.225868	0.419333	-0.211107	0	0	0.176444	-0.202536	0.0234814	1.40807	-0.243825	0	0	-0.0846296	0.144564	0.230693	-0.371215	-0.19599	-0.262464	0.98546	1.5708	0	0	0.142732	-0.225712	0.759963	0.594469	1.54207	0	0
0.17	1.64694	1.47487	0.0395203	0.63507	-0.617458	0.938644	0.155967	0.09504	-0.219014	0.40968	-0.208856	0	0	0.216582	-0.189315	0.0274264	1.42127	-0.235768	0	0	-0.068493	0.129597	-0.118323	-0.0710306	-0.292951	0.211775	0.829592	1.5708	0	0	-0.179272	-0.253923	0.225936	0.79204	1.5708	0	0
0.18	1.65415	1.48152	0.0286935	0.635741	-0.608293	0.939609	0.139729	0.0913572	-0.216316	0.400193	-0.204998	0	0	0.241063	-0.180845	0.0262008	1.43065	-0.224324	0	0	-0.0696202	0.121114	-0.107164	-0.0676073	-0.290466	0.201884	0.83435	1.5708	0	0	-0.184329	-0.256956	0.225374	0.792076	1.5708	0	0
0.19	1.65461	1.48877	0.0240469	0.636434	-0.599228	0.940453	0.126218	0.0860574	-0.216562	0.395831	-0.203111	0	0	0.265366	-0.172321	0.0227888	1.43425	-0.219568	0	0	-0.0687985	0.112166	-0.0992023	-0.0592995	-0.291771	0.206885	0.836348	1.5708	0	0	-0.190687	-0.260145	0.223736	0.790917	1.5708	0	0
0.2	1.65919	1.49632	0.0155173	0.637162	-0.590235	0.941281	0.110316	0.0811208	-0.213613	0.385832	-0.199031	0	0	0.288507	-0.1642	0.0170064	1.43274	-0.208886	0	0	-0.0841678	0.0955549	-0.0718792	-0.065249	-0.287545	0.179491	0.85114	1.5708	0	0	-0.192049	-0.268371	0.220826	0.811248	1.5708	0	0
0.21	1.74328	1.50247	-0.0720152	0.637625	-0.581407	0.942457	0.086958	0.0774065	-0.210665	0.371434	-0.198432	0	0	0.304726	-0.157683	0.00904736	1.42589	-0.198212	0	0	-0.0776538	0.0929769	-0.102203	-0.0229204	-0.289289	0.234405	0.828014	1.5708	0	0	-0.220154	-0.256943	0.172732	0.803931	1.5708	0	0
0.22	1.81989	1.50852	-0.151759	0.638044	-0.572538	0.943397	0.0659331	0.0730571	-0.208246	0.359228	-0.197117	0	0	0.321571	-0.150762	0.000653359	1.41447	-0.18956	0	0	-0.0833331	0.0844704	-0.0997225	-0.00967464	-0.288595	0.241585	0.82853	1.5708	0	0	-0.228204	-0.256127	0.156563	0.806014	1.5708	0	0
0.23	1.92945	1.51311	-0.264211	0.638403	-0.563705	0.94424	0.0433278	0.0693942	-0.206228	0.346273	-0.196168	0	0	0.335545	-0.144751	-0.00785759	1.39856	-0.18079	0	0	-0.0901493	0.076768	-0.0968359	0.00383319	-0.290133	0.25336	0.830462	1.56348	0	0	-0.235303	-0.256573	0.144561	0.808363	1.5708	0	0
0.24	1.97439	1.51827	-0.312161	0.638693	-0.554872	0.944565	0.0283937	0.06491	-0.206183	0.340344	-0.190456	0	0	0.353487	-0.138728	-0.0163804	1.37851	-0.175358	0	0	-0.0920519	0.0702888	-0.0739518	-0.00769675	-0.2845	0.212187	0.847259	1.5708	0	0	-0.22448	-0.264869	0.169274	0.800911	1.5708	0	0
0.25	2.10024	1.52082	-0.440505	0.638915	-0.546216	0.94509	0.00708802	0.0619109	-0.204899	0.328569	-0.189104	0	0	0.365055	-0.133828	-0.02555	1.35274	-0.1701	0	0	-0.098977	0.0639505	-0.070935	0.00449829	-0.283639	0.2162	0.84961	1.5708	0	0	-0.229971	-0.26563	0.159482	0.802799	1.5708	0	0
0.26	2.2472	1.52173	-0.589178	0.638971	-0.537592	0.94554	-0.0149903	0.0589917	-0.204025	0.317111	-0.187725	0	0	0.373913	-0.12852	-0.0339167	1.32177	-0.164976	0	0	-0.106932	0.0583738	-0.0683534	0.0161575	-0.28317	0.219786	0.853295	1.5708	0	0	-0.234635	-0.266042	0.149773	0.804224	1.5708	0	0
